# xmcd
# 
# Track frame offsets:
#     183
#     20913
#     38320
#     54353
#     71328
#     84573
#     101110
#     115870
#     130725
#     152470
#     164210
#     184130
#     202943
#     221318
# 
# Disc length: 3318
# 
# Revision: 8
# Processed by: cddbd v1.5.2PL0 Copyright (c) Steve Scherf et al.
# Submitted via: fre:ac v1.0.27
# 
DISCID=b60cf40e
DTITLE=Memphis Slim - Blues
DYEAR=1993
DGENRE=Jazz
TTITLE0=Late Afternoon Blues
TTITLE1=I Believe I'll Settle Down
TTITLE2=Born with the Blues
TTITLE3=Bad Luck and Troubles
TTITLE4=Memphis Slim U.S.A.
TTITLE5=Just Let Me Be
TTITLE6=Rockin' Chair Blues
TTITLE7=I Feel So Good
TTITLE8=Slow Blues
TTITLE9=Frisco Bay
TTITLE10=Beer Drinkin' Woman
TTITLE11=Blues for Bertha May
TTITLE12=In the Evening
TTITLE13=If You See Kay
EXTD=
EXTT0=
EXTT1=
EXTT2=
EXTT3=
EXTT4=
EXTT5=
EXTT6=
EXTT7=
EXTT8=
EXTT9=
EXTT10=
EXTT11=
EXTT12=
EXTT13=
PLAYORDER=
